<svg width="100" height="100" viewBox="0 0 100 100" fill="none" xmlns="http://www.w3.org/2000/svg">
<path d="M72.7083 94.7917C67.9999 94.7917 63.0416 93.6666 57.9166 91.5C52.9166 89.375 47.8749 86.4583 42.9583 82.9167C38.0833 79.3333 33.3749 75.3333 28.9166 70.9583C24.4999 66.5 20.4999 61.7917 16.9583 56.9583C13.3749 51.9583 10.4999 46.9583 8.45825 42.125C6.29159 36.9583 5.20825 31.9583 5.20825 27.25C5.20825 24 5.79159 20.9166 6.91659 18.0416C8.08325 15.0833 9.95825 12.3333 12.4999 9.95831C15.7083 6.79165 19.3749 5.20831 23.2916 5.20831C24.9166 5.20831 26.5833 5.58331 27.9999 6.24998C29.6249 6.99998 30.9999 8.12498 31.9999 9.62498L41.6666 23.25C42.5416 24.4583 43.2082 25.625 43.6666 26.7916C44.2082 28.0416 44.4999 29.2916 44.4999 30.5C44.4999 32.0833 44.0416 33.625 43.1666 35.0833C42.4008 36.3849 41.4616 37.5764 40.3749 38.625L37.5416 41.5833C37.5833 41.7083 37.6249 41.7916 37.6666 41.875C38.1666 42.75 39.1666 44.25 41.0832 46.5C43.1249 48.8333 45.0416 50.9583 46.9583 52.9166C49.4166 55.3333 51.4583 57.25 53.3749 58.8333C55.7499 60.8333 57.2916 61.8333 58.2083 62.2916L58.1249 62.5L61.1666 59.5C62.4583 58.2083 63.7082 57.25 64.9166 56.625C67.2082 55.2083 70.1249 54.9583 73.0416 56.1666C74.1249 56.625 75.2916 57.25 76.5416 58.125L90.3749 67.9583C91.9166 69 93.0416 70.3333 93.7082 71.9167C94.3332 73.5 94.6249 74.9583 94.6249 76.4167C94.6249 78.4167 94.1666 80.4167 93.2916 82.2917C92.4166 84.1667 91.3332 85.7917 89.9582 87.2917C87.5832 89.9167 84.9999 91.7917 81.9999 93C79.1249 94.1667 75.9999 94.7917 72.7083 94.7917ZM23.2916 11.4583C20.9999 11.4583 18.8749 12.4583 16.8333 14.4583C14.9166 16.25 13.5833 18.2083 12.7499 20.3333C11.8749 22.5 11.4583 24.7916 11.4583 27.25C11.4583 31.125 12.3749 35.3333 14.2083 39.6667C16.0833 44.0833 18.7083 48.6666 22.0416 53.25C25.3749 57.8333 29.1666 62.2917 33.3333 66.5C37.4999 70.625 41.9999 74.4583 46.6249 77.8333C51.1249 81.125 55.7499 83.7917 60.3332 85.7083C67.4582 88.75 74.1249 89.4583 79.6249 87.1667C81.7499 86.2917 83.6249 84.9583 85.3332 83.0417C86.2916 82 87.0416 80.875 87.6666 79.5417C88.1666 78.5 88.4166 77.4167 88.4166 76.3333C88.4166 75.6667 88.2916 75 87.9583 74.25C87.6919 73.7338 87.2881 73.3013 86.7916 73L72.9583 63.1667C72.1249 62.5833 71.3749 62.1667 70.6666 61.875C69.7499 61.5 69.3749 61.125 67.9582 62C67.1249 62.4167 66.3749 63.0417 65.5416 63.875L62.3749 67C60.7499 68.5833 58.2499 68.9583 56.3333 68.25L55.2083 67.75C53.4999 66.8333 51.4999 65.4167 49.2916 63.5417C47.2916 61.8333 45.1249 59.8333 42.4999 57.25C40.4582 55.1666 38.4166 52.9583 36.2916 50.5C34.3333 48.2083 32.9166 46.25 32.0416 44.625L31.5416 43.375C31.2916 42.4166 31.2083 41.875 31.2083 41.2916C31.2083 39.7916 31.7499 38.4583 32.7916 37.4166L35.9166 34.1666C36.7499 33.3333 37.3749 32.5416 37.7916 31.8333C38.1249 31.2916 38.2499 30.8333 38.2499 30.4166C38.2499 30.0833 38.1249 29.5833 37.9166 29.0833C37.6249 28.4166 37.1666 27.6666 36.5832 26.875L26.9166 13.2083C26.5265 12.6485 25.9944 12.2027 25.3749 11.9166C24.7083 11.625 23.9999 11.4583 23.2916 11.4583ZM58.1249 62.5417L57.4582 65.375L58.5833 62.4583C58.3749 62.4166 58.2082 62.4583 58.1249 62.5417Z" fill="black"/>
</svg>
