<svg width="100" height="100" viewBox="0 0 100 100" fill="none" xmlns="http://www.w3.org/2000/svg">
<path d="M49.9959 59.0458C41.1208 59.0458 33.8708 51.8375 33.8708 42.9208C33.8708 34.0042 41.1208 26.8375 49.9959 26.8375C58.8709 26.8375 66.1209 34.0458 66.1209 42.9625C66.1209 51.8792 58.8709 59.0458 49.9959 59.0458ZM49.9959 33.0875C44.5792 33.0875 40.1209 37.5042 40.1209 42.9625C40.1209 48.4208 44.5375 52.8375 49.9959 52.8375C55.4542 52.8375 59.8709 48.4208 59.8709 42.9625C59.8709 37.5042 55.4125 33.0875 49.9959 33.0875Z" fill="black"/>
<path d="M50.0083 94.8333C43.5892 94.8211 37.4234 92.3279 32.8 87.875C20.5083 76.0417 6.92497 57.1667 12.05 34.7083C16.675 14.3333 34.4666 5.20834 50.0083 5.20834H50.05C65.5916 5.20834 83.3833 14.3333 88.0083 34.75C93.0916 57.2083 79.5083 76.0417 67.2166 87.875C62.5932 92.3279 56.4274 94.8211 50.0083 94.8333ZM50.0083 11.4583C37.8833 11.4583 22.3 17.9167 18.175 36.0833C13.675 55.7083 26.0083 72.625 37.175 83.3333C40.6167 86.6804 45.2283 88.553 50.0291 88.553C54.83 88.553 59.4416 86.6804 62.8833 83.3333C74.0083 72.625 86.3416 55.7083 81.925 36.0833C77.7583 17.9167 62.1333 11.4583 50.0083 11.4583Z" fill="black"/>
</svg>
