<svg width="94" height="100" viewBox="0 0 94 100" fill="none" xmlns="http://www.w3.org/2000/svg">
<path d="M66.6667 94.7917H33.3333C9.375 94.7917 9.375 82.0833 9.375 70.8333V66.6667C9.375 57.375 9.375 46.875 29.1667 46.875C34.125 46.875 35.9583 48.0833 38.5417 50C38.6667 50.125 38.8333 50.2083 38.9583 50.375L43.2083 54.875C46.7917 58.6667 53.2917 58.6667 56.875 54.875L61.125 50.375C61.25 50.25 61.375 50.125 61.5417 50C64.125 48.0417 65.9583 46.875 70.9167 46.875C90.7083 46.875 90.7083 57.375 90.7083 66.6667V70.8333C90.625 86.75 82.5833 94.7917 66.6667 94.7917ZM29.1667 53.125C15.625 53.125 15.625 57.375 15.625 66.6667V70.8333C15.625 82.25 15.625 88.5417 33.3333 88.5417H66.6667C79.0833 88.5417 84.375 83.25 84.375 70.8333V66.6667C84.375 57.375 84.375 53.125 70.8333 53.125C67.8333 53.125 67.2083 53.5 65.4167 54.8333L61.375 59.125C59.9176 60.6809 58.1556 61.9203 56.1987 62.7661C54.2418 63.6119 52.1319 64.0461 50 64.0417C47.8681 64.0461 45.7582 63.6119 43.8013 62.7661C41.8444 61.9203 40.0824 60.6809 38.625 59.125L34.5833 54.8333C32.7917 53.5 32.1667 53.125 29.1667 53.125Z" fill="black"/>
<path d="M79.1666 53.125C77.4583 53.125 76.0416 51.7083 76.0416 50V25C76.0416 15.7083 76.0416 11.4583 62.4999 11.4583H37.4999C23.9583 11.4583 23.9583 15.7083 23.9583 25V50C23.9583 51.7083 22.5416 53.125 20.8333 53.125C19.1249 53.125 17.7083 51.7083 17.7083 50V25C17.7083 15.7083 17.7083 5.20834 37.4999 5.20834H62.4999C82.2916 5.20834 82.2916 15.7083 82.2916 25V50C82.2916 51.7083 80.8749 53.125 79.1666 53.125Z" fill="black"/>
<path d="M57.8334 41.5833H43.9584C42.25 41.5833 40.8334 40.1667 40.8334 38.4583C40.8334 36.75 42.25 35.3333 43.9584 35.3333H57.8334C58.6622 35.3333 59.457 35.6626 60.0431 36.2486C60.6291 36.8347 60.9584 37.6295 60.9584 38.4583C60.9584 39.2871 60.6291 40.082 60.0431 40.6681C59.457 41.2541 58.6622 41.5833 57.8334 41.5833ZM61.3292 29.0833H40.4958C38.7875 29.0833 37.3708 27.6667 37.3708 25.9583C37.3708 24.25 38.7875 22.8333 40.4958 22.8333H61.3292C62.158 22.8333 62.9528 23.1626 63.5389 23.7486C64.1249 24.3347 64.4542 25.1295 64.4542 25.9583C64.4542 26.7871 64.1249 27.582 63.5389 28.1681C62.9528 28.7541 62.158 29.0833 61.3292 29.0833Z" fill="black"/>
</svg>
